<svg width="40" height="40" viewBox="0 0 40 40" fill="none" xmlns="http://www.w3.org/2000/svg">
<path d="M19.0444 9.39289L18.3918 8.74008L18.3917 8.74018L19.0444 9.39289ZM9.654 18.7833L9.00128 18.1305L9.00119 18.1306L9.654 18.7833ZM9.28699 19.4701L8.38164 19.29L9.28699 19.4701ZM9.36333 20.245L10.2162 19.8918L10.2162 19.8918L9.36333 20.245ZM9.85729 20.847L10.3702 20.0795L9.85729 20.847ZM10.6024 21.0732L10.6022 21.9962H10.6024V21.0732ZM11.9439 21.0732H12.867V20.1501H11.9439V21.0732ZM12.3368 30.0706L11.6841 30.7233L11.6841 30.7233L12.3368 30.0706ZM17.3096 30.4635V31.3866H18.2327V30.4635H17.3096ZM22.6755 30.4635H21.7524V31.3866H22.6755V30.4635ZM28.0417 21.0732V20.1501H27.1186V21.0732H28.0417ZM29.3832 21.0732V21.9962H29.3834L29.3832 21.0732ZM30.1283 20.847L30.6412 21.6144L30.6412 21.6144L30.1283 20.847ZM30.6223 20.245L29.7694 19.8918V19.8918L30.6223 20.245ZM30.6986 19.4701L31.6039 19.29L31.6039 19.29L30.6986 19.4701ZM30.3316 18.7833L30.9844 18.1306L30.9843 18.1305L30.3316 18.7833ZM20.9412 9.39289L21.5939 8.74018L21.5938 8.74008L20.9412 9.39289ZM19.697 10.0457C19.7754 9.96726 19.8818 9.9232 19.9928 9.9232V8.07705C19.3923 8.07705 18.8164 8.31554 18.3918 8.74008L19.697 10.0457ZM10.3067 19.436L19.6971 10.0456L18.3917 8.74018L9.00128 18.1305L10.3067 19.436ZM10.1923 19.6501C10.2085 19.5689 10.2483 19.4944 10.3068 19.4359L9.00119 18.1306C8.68458 18.4473 8.46898 18.8508 8.38164 19.29L10.1923 19.6501ZM10.2162 19.8918C10.1845 19.8153 10.1762 19.7312 10.1923 19.6501L8.38164 19.29C8.2943 19.7292 8.33915 20.1845 8.51051 20.5982L10.2162 19.8918ZM10.3702 20.0795C10.3014 20.0336 10.2478 19.9682 10.2162 19.8918L8.51051 20.5982C8.68186 21.012 8.97204 21.3656 9.34436 21.6144L10.3702 20.0795ZM10.6026 20.1501C10.5199 20.1501 10.439 20.1255 10.3702 20.0795L9.34436 21.6144C9.71668 21.8633 10.1544 21.9961 10.6022 21.9962L10.6026 20.1501ZM11.9439 20.1501H10.6024V21.9962H11.9439V20.1501ZM12.867 29.1221V21.0732H11.0208V29.1221H12.867ZM12.9895 29.4179C12.9111 29.3394 12.867 29.233 12.867 29.1221H11.0208C11.0208 29.7227 11.2594 30.2987 11.6841 30.7233L12.9895 29.4179ZM13.2854 29.5405C13.1744 29.5405 13.068 29.4964 12.9895 29.4179L11.6841 30.7233C12.1088 31.148 12.6848 31.3866 13.2854 31.3866V29.5405ZM15.9683 29.5405H13.2854V31.3866H15.9683V29.5405ZM17.3096 29.5405H15.9683V31.3866H17.3096V29.5405ZM18.2327 30.4635V26.1712H16.3866V30.4635H18.2327ZM18.2327 26.1712C18.2327 25.1992 19.0206 24.4113 19.9926 24.4113V22.5652C18.001 22.5652 16.3866 24.1796 16.3866 26.1712H18.2327ZM19.9926 24.4113C20.9645 24.4113 21.7524 25.1992 21.7524 26.1712H23.5986C23.5986 24.1796 21.9841 22.5652 19.9926 22.5652V24.4113ZM21.7524 26.1712V30.4635H23.5986V26.1712H21.7524ZM24.0172 29.5405H22.6755V31.3866H24.0172V29.5405ZM26.7002 29.5405H24.0172V31.3866H26.7002V29.5405ZM26.9961 29.4179C26.9176 29.4964 26.8112 29.5405 26.7002 29.5405V31.3866C27.3008 31.3866 27.8768 31.148 28.3015 30.7233L26.9961 29.4179ZM27.1186 29.1221C27.1186 29.233 27.0745 29.3394 26.9961 29.4179L28.3015 30.7233C28.7262 30.2987 28.9648 29.7227 28.9648 29.1221H27.1186ZM27.1186 21.0732V29.1221H28.9648V21.0732H27.1186ZM29.3832 20.1501H28.0417V21.9962H29.3832V20.1501ZM29.6154 20.0795C29.5466 20.1255 29.4657 20.1501 29.383 20.1501L29.3834 21.9962C29.8312 21.9961 30.2689 21.8633 30.6412 21.6144L29.6154 20.0795ZM29.7694 19.8918C29.7378 19.9682 29.6842 20.0336 29.6154 20.0795L30.6412 21.6144C31.0135 21.3656 31.3037 21.012 31.4751 20.5982L29.7694 19.8918ZM29.7932 19.6501C29.8094 19.7312 29.8011 19.8153 29.7694 19.8918L31.4751 20.5982C31.6464 20.1845 31.6913 19.7292 31.6039 19.29L29.7932 19.6501ZM29.6788 19.4359C29.7373 19.4944 29.7771 19.5689 29.7932 19.6501L31.6039 19.29C31.5166 18.8508 31.301 18.4474 30.9844 18.1306L29.6788 19.4359ZM20.2885 10.0456L29.6789 19.436L30.9843 18.1305L21.5939 8.74018L20.2885 10.0456ZM19.9928 9.9232C20.1037 9.9232 20.2101 9.96726 20.2886 10.0457L21.5938 8.74008C21.1692 8.31554 20.5933 8.07705 19.9928 8.07705V9.9232Z" fill="#0CB3E0"/>
</svg>
