<svg width="18" height="24" viewBox="0 0 18 24" fill="none" xmlns="http://www.w3.org/2000/svg">
<g clip-path="url(#clip0_596_1620)">
<path d="M16.1484 4.45334H14.9766V1.64018C14.9766 1.11532 14.7226 0.618352 14.2973 0.310805C13.872 0.00325768 13.3205 -0.0822892 12.822 0.0821483L1.33763 3.86993C0.663703 4.09226 0.210938 4.71841 0.210938 5.42801V18.5313V22.3594C0.210938 23.264 0.946922 24 1.85156 24H16.1484C17.0531 24 17.7891 23.264 17.7891 22.3594V6.09396C17.7891 5.18937 17.0531 4.45334 16.1484 4.45334ZM16.3828 22.3594C16.3828 22.4886 16.2777 22.5937 16.1484 22.5937H1.85156C1.72233 22.5937 1.61719 22.4886 1.61719 22.3594V17.8282V6.09396C1.61719 5.96473 1.72233 5.85959 1.85156 5.85959H16.1484C16.2777 5.85959 16.3828 5.96473 16.3828 6.09396V22.3594ZM13.2625 1.41762C13.3615 1.38499 13.437 1.42409 13.4733 1.45029C13.5096 1.47649 13.5704 1.53598 13.5704 1.64018V4.45338H4.05834L13.2625 1.41762Z" fill="#8D99AE" stroke="#8D99AE" stroke-width="0.24"/>
<path d="M4.3125 13.9913H5.16478H13.6875C14.0758 13.9913 14.3906 13.6765 14.3906 13.2882C14.3906 12.8999 14.0758 12.585 13.6875 12.585H13.4838C13.1807 10.6445 11.6437 9.10743 9.70312 8.80434V8.45203C9.70312 8.06371 9.38831 7.7489 9 7.7489C8.61169 7.7489 8.29688 8.06371 8.29688 8.45203V8.80434C6.35634 9.10743 4.81927 10.6445 4.51617 12.585H4.3125C3.92419 12.585 3.60938 12.8999 3.60938 13.2882C3.60938 13.6765 3.92419 13.9913 4.3125 13.9913ZM9 10.1561C10.4854 10.1561 11.7325 11.1955 12.0525 12.585H5.94745C6.26747 11.1955 7.51467 10.1561 9 10.1561Z" fill="#8D99AE"/>
<path d="M4.58496 15.8909C4.19665 15.8909 3.88184 16.2057 3.88184 16.594C3.88184 16.9823 4.19665 17.2971 4.58496 17.2971H7.95996C8.34827 17.2971 8.66309 16.9823 8.66309 16.594C8.66309 16.2057 8.34827 15.8909 7.95996 15.8909H4.58496Z" fill="#8D99AE"/>
<path d="M13.5117 18.7034H4.48828C4.09997 18.7034 3.78516 19.0182 3.78516 19.4065C3.78516 19.7948 4.09997 20.1096 4.48828 20.1096H13.5117C13.9 20.1096 14.2148 19.7948 14.2148 19.4065C14.2148 19.0182 13.9 18.7034 13.5117 18.7034Z" fill="#8D99AE"/>
</g>
<defs>
<clipPath id="clip0_596_1620">
<rect width="18" height="24" fill="white"/>
</clipPath>
</defs>
</svg>
