<svg width="26" height="26" viewBox="0 0 26 26" fill="none" xmlns="http://www.w3.org/2000/svg">
<path d="M10.8327 6.50065H7.58268C7.00805 6.50065 6.45695 6.72892 6.05062 7.13525C5.64429 7.54158 5.41602 8.09268 5.41602 8.66732V18.4173C5.41602 18.992 5.64429 19.5431 6.05062 19.9494C6.45695 20.3557 7.00805 20.584 7.58268 20.584H17.3327C17.9073 20.584 18.4584 20.3557 18.8647 19.9494C19.2711 19.5431 19.4993 18.992 19.4993 18.4173V15.1673M15.166 7.58398C15.166 8.44594 15.5084 9.27259 16.1179 9.88208C16.7274 10.4916 17.5541 10.834 18.416 10.834C19.278 10.834 20.1046 10.4916 20.7141 9.88208C21.3236 9.27259 21.666 8.44594 21.666 7.58398C21.666 6.72203 21.3236 5.89538 20.7141 5.28589C20.1046 4.67639 19.278 4.33398 18.416 4.33398C17.5541 4.33398 16.7274 4.67639 16.1179 5.28589C15.5084 5.89538 15.166 6.72203 15.166 7.58398Z" stroke="white" stroke-width="1.7" stroke-linecap="round" stroke-linejoin="round"/>
</svg>
