<?xml version="1.0" encoding="UTF-8"?>
<svg version="1.1" xmlns="http://www.w3.org/2000/svg" width="88" height="88">
<path d="M0 0 C1.22052063 -0.0049926 1.22052063 -0.0049926 2.46569824 -0.01008606 C4.1872501 -0.015152 5.90881179 -0.01749449 7.63037109 -0.01733398 C10.27067123 -0.01952248 12.91055497 -0.03768692 15.55078125 -0.05664062 C17.22135273 -0.05957416 18.89192621 -0.06155922 20.5625 -0.0625 C21.35523315 -0.06968552 22.14796631 -0.07687103 22.96472168 -0.08427429 C28.55242318 -0.06085807 28.55242318 -0.06085807 30.78125 2.16796875 C30.22569444 6.72352431 30.22569444 6.72352431 28.78125 8.16796875 C26.26268825 8.32783821 23.76760826 8.42738769 21.24609375 8.484375 C20.57872192 8.50302612 19.9113501 8.52167725 19.22375488 8.54089355 C16.72222583 8.60937616 14.22047118 8.66940662 11.71875 8.73046875 C6.129375 8.87484375 0.54 9.01921875 -5.21875 9.16796875 C-5.54875 23.02796875 -5.87875 36.88796875 -6.21875 51.16796875 C12.92125 51.16796875 32.06125 51.16796875 51.78125 51.16796875 C51.78125 43.90796875 51.78125 36.64796875 51.78125 29.16796875 C53.43125 28.50796875 55.08125 27.84796875 56.78125 27.16796875 C57.77125 27.82796875 58.76125 28.48796875 59.78125 29.16796875 C60.15356445 31.53466797 60.15356445 31.53466797 60.14453125 34.47265625 C60.14356445 36.06013672 60.14356445 36.06013672 60.14257812 37.6796875 C60.12646484 38.78957031 60.11035156 39.89945313 60.09375 41.04296875 C60.09697266 42.14511719 60.10019531 43.24726562 60.10351562 44.3828125 C60.04103447 53.73226552 60.04103447 53.73226552 57.78125 57.16796875 C54.19456687 59.55909084 52.61728431 59.40177902 48.36328125 59.36328125 C46.48286133 59.35361328 46.48286133 59.35361328 44.56445312 59.34375 C43.25412109 59.32699219 41.94378906 59.31023437 40.59375 59.29296875 C39.25847013 59.28293514 37.92318311 59.27380995 36.58789062 59.265625 C33.31882985 59.24202167 30.05012972 59.20909469 26.78125 59.16796875 C26.78125 61.47796875 26.78125 63.78796875 26.78125 66.16796875 C28.60462891 66.15056641 28.60462891 66.15056641 30.46484375 66.1328125 C32.04947764 66.12343597 33.63411318 66.11433562 35.21875 66.10546875 C36.42241211 66.09290039 36.42241211 66.09290039 37.65039062 66.08007812 C39.69420221 66.07145445 41.73808902 66.11568725 43.78125 66.16796875 C44.78125 67.16796875 44.78125 67.16796875 44.90625 70.16796875 C44.78125 73.16796875 44.78125 73.16796875 43.78125 74.16796875 C40.69043535 74.26913795 37.62242445 74.30765433 34.53125 74.30078125 C33.60280273 74.30173798 32.67435547 74.3026947 31.71777344 74.30368042 C29.75065035 74.3043623 27.78352504 74.30250747 25.81640625 74.29833984 C22.79421974 74.2929917 19.77218185 74.29828457 16.75 74.3046875 C14.84374967 74.30402672 12.93749943 74.30274556 11.03125 74.30078125 C9.66564941 74.3038176 9.66564941 74.3038176 8.27246094 74.30691528 C1.89619969 74.28291844 1.89619969 74.28291844 0.78125 73.16796875 C0.65625 70.16796875 0.65625 70.16796875 0.78125 67.16796875 C1.78125 66.16796875 1.78125 66.16796875 5.59765625 66.0703125 C7.17971682 66.07698786 8.76176159 66.08895 10.34375 66.10546875 C11.15005859 66.10998047 11.95636719 66.11449219 12.78710938 66.11914062 C14.78518756 66.13096357 16.78322783 66.14889961 18.78125 66.16796875 C18.78125 63.85796875 18.78125 61.54796875 18.78125 59.16796875 C17.95399414 59.18891602 17.12673828 59.20986328 16.27441406 59.23144531 C12.5268163 59.31458494 8.77941251 59.36662406 5.03125 59.41796875 C3.72929687 59.45148438 2.42734375 59.485 1.0859375 59.51953125 C-0.16445313 59.53242187 -1.41484375 59.5453125 -2.703125 59.55859375 C-4.43127441 59.59001465 -4.43127441 59.59001465 -6.19433594 59.62207031 C-9.85607191 59.07227786 -10.96082694 58.03333306 -13.21875 55.16796875 C-14.39955806 52.80635263 -14.36394695 51.34032218 -14.39575195 48.70581055 C-14.41500481 47.31878181 -14.41500481 47.31878181 -14.43464661 45.9037323 C-14.44203354 44.90167252 -14.44942047 43.89961273 -14.45703125 42.8671875 C-14.465103 41.83866165 -14.47317474 40.8101358 -14.48149109 39.7504425 C-14.49533767 37.57070607 -14.50605725 35.39094789 -14.51391602 33.21118164 C-14.53112689 29.87930148 -14.57500835 26.54841389 -14.61914062 23.21679688 C-14.62926756 21.10026772 -14.63778366 18.98373012 -14.64453125 16.8671875 C-14.66203934 15.87120041 -14.67954742 14.87521332 -14.69758606 13.8490448 C-14.68375321 9.43217472 -14.66329323 6.8941112 -12.31713867 3.06176758 C-8.45688936 -0.42211304 -4.96904328 0.00697545 0 0 Z " fill="#FFFFFF" transform="translate(21.21875,6.83203125)"/>
<path d="M0 0 C3.88924158 1.8057193 5.51165031 3.26747547 7.875 6.8125 C9.60690553 11.71956568 9.63147999 15.30497476 7.8125 20.1875 C5.47953993 23.80761046 2.84455245 26.07772378 -1 28 C-7.42506974 28.54449744 -10.75654537 27.80407493 -16 24 C-19.47102301 20.19307154 -19.45374094 16.307452 -19.28515625 11.3671875 C-18.76375335 7.03882921 -16.76324842 4.88250599 -14 1.6875 C-9.42070597 -0.88835289 -5.1326829 -0.73862397 0 0 Z " fill="#FF0202" transform="translate(79,0)"/>
</svg>
