<svg width="26" height="26" viewBox="0 0 26 26" fill="none" xmlns="http://www.w3.org/2000/svg">
<g clip-path="url(#clip0_596_206)">
<path d="M20.0939 15.9179V15.2953C20.0939 13.1564 18.5422 11.3731 16.5054 11.0119V9.53955H14.982V11.0119C12.9452 11.3731 11.3934 13.1564 11.3934 15.2953V15.9179H10.2897V17.4413H21.1976V15.9179H20.0939ZM12.9169 15.2953C12.9169 13.7366 14.185 12.4685 15.7437 12.4685C17.3025 12.4685 18.5705 13.7366 18.5705 15.2953V15.9179H12.9169V15.2953Z" fill="#8D99AE" stroke="#8D99AE" stroke-width="0.216667"/>
<path d="M24.8942 14.2696C24.8942 9.48064 21.1961 5.53909 16.5056 5.15076V2.88428C16.5056 1.29386 15.2117 0 13.6213 0H3.9903C2.39993 0 1.10602 1.29386 1.10602 2.88428V23.1157C1.10602 24.7061 2.39988 26 3.9903 26H13.6213C15.1194 26 16.3544 24.852 16.4927 23.3895C21.1893 23.0073 24.8942 19.063 24.8942 14.2696ZM10.811 1.52344L10.4757 2.8953H7.13596L6.8007 1.52344H10.811ZM13.6213 24.4766H3.9903C3.23996 24.4766 2.62946 23.8661 2.62946 23.1157V2.88428C2.62946 2.13389 3.23996 1.52344 3.9903 1.52344H5.23242L5.94006 4.41875H11.6716L12.3792 1.52344H13.6213C14.3717 1.52344 14.9822 2.13389 14.9822 2.88428V5.15076C10.2917 5.53909 6.59361 9.48064 6.59361 14.2696C6.59361 19.0494 10.2775 22.985 14.9551 23.3861C14.8294 24.0074 14.2791 24.4766 13.6213 24.4766ZM15.7439 21.8964C11.5385 21.8964 8.11706 18.4751 8.11706 14.2696C8.11706 10.0642 11.5385 6.64282 15.7439 6.64282C19.9493 6.64282 23.3707 10.0642 23.3707 14.2696C23.3707 18.4751 19.9493 21.8964 15.7439 21.8964Z" fill="#8D99AE" stroke="#8D99AE" stroke-width="0.2"/>
</g>
<defs>
<clipPath id="clip0_596_206">
<rect width="26" height="26" fill="white"/>
</clipPath>
</defs>
</svg>
