<svg width="40" height="40" viewBox="0 0 40 40" fill="none" xmlns="http://www.w3.org/2000/svg">
<g clip-path="url(#clip0_596_191)">
<path d="M15.2018 15.2V14C15.2018 12.7269 15.7075 11.506 16.6077 10.6058C17.5078 9.70566 18.7287 9.19995 20.0018 9.19995C21.2748 9.19995 22.4957 9.70566 23.3959 10.6058C24.2961 11.506 24.8018 12.7269 24.8018 14V15.2M23.6018 22.4V20M16.4018 22.4V20" stroke="#8D99AE" stroke-width="1.8" stroke-linecap="round"/>
<path d="M10.4012 20C10.4012 17.7368 10.4012 16.6064 11.1044 15.9032C11.8076 15.2 12.938 15.2 15.2012 15.2H24.8012C27.0644 15.2 28.1948 15.2 28.898 15.9032C29.6012 16.6064 29.6012 17.7368 29.6012 20V21.2C29.6012 25.7252 29.6012 27.9883 28.1948 29.3935C26.7896 30.7999 24.5264 30.8 20.0012 30.8C15.476 30.8 13.2128 30.7999 11.8076 29.3935C10.4012 27.9883 10.4012 25.7252 10.4012 21.2V20Z" stroke="#8D99AE" stroke-width="1.8"/>
</g>
<defs>
<clipPath id="clip0_596_191">
<rect width="21.6" height="24" fill="white" transform="translate(9.2 8)"/>
</clipPath>
</defs>
</svg>
