<svg width="40" height="40" viewBox="0 0 40 40" fill="none" xmlns="http://www.w3.org/2000/svg">
<path d="M30.5919 13.2568L32.6107 20.7911C32.7755 21.4059 32.6892 22.061 32.371 22.6122C32.0527 23.1635 31.5285 23.5657 30.9137 23.7304L15.8452 27.768C15.2304 27.9328 14.5753 27.8465 14.0241 27.5283C13.4728 27.21 13.0706 26.6858 12.9058 26.071L10.4212 16.7981C10.2564 16.1832 10.3427 15.5282 10.6609 14.9769C10.9792 14.4257 11.5034 14.0234 12.1182 13.8587L27.1867 9.82112C27.8015 9.65637 28.4566 9.74262 29.0078 10.0609C29.5591 10.3791 29.9613 10.9033 30.1261 11.5182L30.5919 13.2568Z" stroke="#8D99AE" stroke-width="1.725" stroke-linecap="round" stroke-linejoin="round"/>
<path d="M27.8001 20.5999V28.3999C27.8001 29.0364 27.5472 29.6469 27.0971 30.097C26.647 30.547 26.0366 30.7999 25.4001 30.7999H9.80007C9.16355 30.7999 8.5531 30.547 8.10301 30.097C7.65293 29.6469 7.40007 29.0364 7.40007 28.3999V18.7999C7.40007 18.1634 7.65293 17.5529 8.10301 17.1028C8.5531 16.6528 9.16355 16.3999 9.80007 16.3999H25.4001C26.0366 16.3999 26.647 16.6528 27.0971 17.1028C27.5472 17.5529 27.8001 18.1634 27.8001 18.7999V20.5999ZM27.8001 20.5999H11.6001H27.8001Z" fill="#272B32"/>
<path d="M27.8001 20.5999V28.3999C27.8001 29.0364 27.5472 29.6469 27.0971 30.097C26.647 30.547 26.0366 30.7999 25.4001 30.7999H9.80007C9.16355 30.7999 8.5531 30.547 8.10301 30.097C7.65293 29.6469 7.40007 29.0364 7.40007 28.3999V18.7999C7.40007 18.1634 7.65293 17.5529 8.10301 17.1028C8.5531 16.6528 9.16355 16.3999 9.80007 16.3999H25.4001C26.0366 16.3999 26.647 16.6528 27.0971 17.1028C27.5472 17.5529 27.8001 18.1634 27.8001 18.7999V20.5999ZM27.8001 20.5999H11.6001" stroke="#8D99AE" stroke-width="1.725" stroke-linecap="round" stroke-linejoin="round"/>
<rect x="11.0002" y="24.2" width="3.6" height="3.6" rx="0.72" stroke="#8D99AE" stroke-width="1.2" stroke-linecap="round" stroke-linejoin="round"/>
</svg>
