<svg width="40" height="40" viewBox="0 0 40 40" fill="none" xmlns="http://www.w3.org/2000/svg">
<g clip-path="url(#clip0_632_3311)">
<path d="M19.7383 23.1304C21.4672 23.1304 22.8687 21.7289 22.8687 20C22.8687 18.2711 21.4672 16.8696 19.7383 16.8696C18.0094 16.8696 16.6079 18.2711 16.6079 20C16.6079 21.7289 18.0094 23.1304 19.7383 23.1304Z" stroke="#8D99AE" stroke-width="1.56521"/>
<path d="M21.5806 9.72386C21.1977 9.56525 20.7114 9.56525 19.7389 9.56525C18.7664 9.56525 18.2801 9.56525 17.8972 9.72386C17.6438 9.82874 17.4136 9.98253 17.2197 10.1764C17.0258 10.3703 16.872 10.6006 16.7671 10.8539C16.6711 11.0866 16.6325 11.359 16.6179 11.7545C16.6114 12.0404 16.5323 12.3199 16.3881 12.5669C16.2439 12.8138 16.0393 13.0201 15.7935 13.1663C15.544 13.3062 15.2631 13.3803 14.9771 13.3818C14.691 13.3832 14.4093 13.312 14.1584 13.1746C13.8078 12.9889 13.5543 12.8866 13.3028 12.8532C12.7543 12.7811 12.1995 12.9297 11.7605 13.2665C11.4329 13.52 11.1887 13.9406 10.7025 14.7826C10.2162 15.6247 9.97203 16.0452 9.91881 16.4574C9.88295 16.7292 9.90099 17.0054 9.97189 17.2702C10.0428 17.535 10.1652 17.7832 10.332 18.0007C10.4865 18.2011 10.7025 18.3691 11.0374 18.5799C11.531 18.8898 11.8482 19.4178 11.8482 20C11.8482 20.5823 11.531 21.1103 11.0374 21.4192C10.7025 21.631 10.4854 21.799 10.332 21.9993C10.1652 22.2168 10.0428 22.4651 9.97189 22.7299C9.90099 22.9947 9.88295 23.2709 9.91881 23.5426C9.97307 23.9538 10.2162 24.3753 10.7014 25.2174C11.1887 26.0595 11.4318 26.48 11.7605 26.7336C11.978 26.9005 12.2263 27.0228 12.4911 27.0937C12.7559 27.1646 13.0321 27.1827 13.3038 27.1468C13.5543 27.1134 13.8078 27.0112 14.1584 26.8254C14.4093 26.6881 14.691 26.6168 14.9771 26.6183C15.2631 26.6197 15.544 26.6939 15.7935 26.8338C16.2975 27.1259 16.597 27.6633 16.6179 28.2456C16.6325 28.6421 16.6701 28.9134 16.7671 29.1461C16.872 29.3995 17.0258 29.6297 17.2197 29.8236C17.4136 30.0175 17.6438 30.1713 17.8972 30.2762C18.2801 30.4348 18.7664 30.4348 19.7389 30.4348C20.7114 30.4348 21.1977 30.4348 21.5806 30.2762C21.834 30.1713 22.0642 30.0175 22.2581 29.8236C22.452 29.6297 22.6058 29.3995 22.7107 29.1461C22.8067 28.9134 22.8453 28.6421 22.8599 28.2456C22.8808 27.6633 23.1803 27.1249 23.6843 26.8338C23.9338 26.6939 24.2147 26.6197 24.5007 26.6183C24.7868 26.6168 25.0685 26.6881 25.3194 26.8254C25.67 27.0112 25.9235 27.1134 26.174 27.1468C26.4458 27.1827 26.7219 27.1646 26.9867 27.0937C27.2515 27.0228 27.4998 26.9005 27.7173 26.7336C28.046 26.4811 28.2891 26.0595 28.7754 25.2174C29.2616 24.3753 29.5058 23.9548 29.559 23.5426C29.5949 23.2709 29.5768 22.9947 29.5059 22.7299C29.435 22.4651 29.3126 22.2168 29.1458 21.9993C28.9913 21.799 28.7754 21.631 28.4404 21.4202C28.196 21.2716 27.9933 21.0633 27.8515 20.8149C27.7096 20.5665 27.6333 20.2861 27.6296 20C27.6296 19.4178 27.9468 18.8898 28.4404 18.5809C28.7754 18.3691 28.9924 18.2011 29.1458 18.0007C29.3126 17.7832 29.435 17.535 29.5059 17.2702C29.5768 17.0054 29.5949 16.7292 29.559 16.4574C29.5047 16.0463 29.2616 15.6247 28.7764 14.7826C28.2891 13.9406 28.046 13.52 27.7173 13.2665C27.4998 13.0996 27.2515 12.9772 26.9867 12.9063C26.7219 12.8354 26.4458 12.8174 26.174 12.8532C25.9235 12.8866 25.67 12.9889 25.3183 13.1746C25.0676 13.3118 24.786 13.3829 24.5002 13.3815C24.2144 13.38 23.9336 13.306 23.6843 13.1663C23.4385 13.0201 23.2339 12.8138 23.0897 12.5669C22.9455 12.3199 22.8664 12.0404 22.8599 11.7545C22.8453 11.3579 22.8077 11.0866 22.7107 10.8539C22.6058 10.6006 22.452 10.3703 22.2581 10.1764C22.0642 9.98253 21.834 9.82874 21.5806 9.72386Z" stroke="#8D99AE" stroke-width="1.56521"/>
</g>
<defs>
<clipPath id="clip0_632_3311">
<rect width="21.9129" height="24" fill="white" transform="translate(9.04346 8)"/>
</clipPath>
</defs>
</svg>
