<svg width="28" height="28" viewBox="0 0 28 28" fill="none" xmlns="http://www.w3.org/2000/svg">
<path d="M15.5 6.20302C15.5 5.36752 14.4905 4.94977 13.8995 5.54002L10.379 9.06127C10.2396 9.20053 10.0741 9.31095 9.89202 9.38623C9.70993 9.46151 9.51479 9.50018 9.31775 9.50002H6.5C5.70435 9.50002 4.94129 9.81609 4.37868 10.3787C3.81607 10.9413 3.5 11.7044 3.5 12.5V15.5C3.5 16.2957 3.81607 17.0587 4.37868 17.6213C4.94129 18.184 5.70435 18.5 6.5 18.5H9.31775C9.51479 18.4999 9.70993 18.5385 9.89202 18.6138C10.0741 18.6891 10.2396 18.7995 10.379 18.9388L13.8995 22.46C14.4905 23.0503 15.5 22.6325 15.5 21.797V6.20302ZM11.4395 10.1218L14 7.56127V20.4395L11.4395 17.879C11.1609 17.6003 10.8301 17.3793 10.4661 17.2285C10.102 17.0776 9.71181 17 9.31775 17H6.5C6.10217 17 5.72064 16.842 5.43934 16.5607C5.15803 16.2794 5 15.8979 5 15.5V12.5C5 12.1022 5.15803 11.7207 5.43934 11.4394C5.72064 11.1581 6.10217 11 6.5 11H9.31775C9.71176 11.0001 10.1019 10.9226 10.466 10.7719C10.83 10.6213 11.1608 10.4003 11.4395 10.1218ZM19.118 9.07552C19.0627 8.99328 18.9916 8.92281 18.9088 8.86821C18.8261 8.8136 18.7334 8.77594 18.636 8.7574C18.5386 8.73886 18.4385 8.73981 18.3415 8.76019C18.2445 8.78057 18.1525 8.81997 18.0708 8.87613C17.9891 8.93229 17.9194 9.00409 17.8656 9.08737C17.8119 9.17065 17.7751 9.26376 17.7576 9.36132C17.74 9.45888 17.742 9.55895 17.7633 9.65575C17.7847 9.75255 17.825 9.84416 17.882 9.92527C18.8457 11.3278 19.2972 12.6823 19.2972 14C19.2972 15.3185 18.8457 16.6738 17.882 18.0755C17.825 18.1566 17.7847 18.2482 17.7633 18.345C17.742 18.4418 17.74 18.5419 17.7576 18.6395C17.7751 18.737 17.8119 18.8302 17.8656 18.9134C17.9194 18.9967 17.9891 19.0685 18.0708 19.1247C18.1525 19.1808 18.2445 19.2202 18.3415 19.2406C18.4385 19.261 18.5386 19.2619 18.636 19.2434C18.7334 19.2249 18.8261 19.1872 18.9088 19.1326C18.9916 19.078 19.0627 19.0075 19.118 18.9253C20.2167 17.3278 20.7965 15.6823 20.7965 14C20.7965 12.3185 20.2167 10.6738 19.118 9.07552ZM21.2675 5.95702C21.1234 5.81977 20.9307 5.74539 20.7317 5.75025C20.5327 5.7551 20.3439 5.83879 20.2066 5.9829C20.0694 6.12701 19.995 6.31974 19.9998 6.5187C20.0047 6.71765 20.0884 6.90652 20.2325 7.04377C22.0227 8.74852 22.9535 11.3473 22.9535 14C22.9535 16.6528 22.0227 19.2523 20.2325 20.957C20.1611 21.025 20.1039 21.1063 20.0639 21.1964C20.024 21.2865 20.0022 21.3836 19.9998 21.4821C19.9974 21.5806 20.0145 21.6786 20.0499 21.7706C20.0854 21.8625 20.1387 21.9465 20.2066 22.0179C20.2746 22.0893 20.3559 22.1465 20.446 22.1864C20.5361 22.2264 20.6332 22.2481 20.7317 22.2506C20.8302 22.253 20.9282 22.2359 21.0202 22.2005C21.1121 22.165 21.1961 22.1117 21.2675 22.0438C23.4147 19.9985 24.4527 16.9723 24.4527 14C24.4527 11.0278 23.4155 8.00227 21.2675 5.95702Z" fill="white"/>
</svg>
