<svg width="24" height="24" viewBox="0 0 24 24" fill="none" xmlns="http://www.w3.org/2000/svg">
<g clip-path="url(#clip0_596_213)">
<path d="M10.7998 22.7999H4.19985C3.56333 22.7999 2.95288 22.5471 2.50279 22.097C2.05271 21.6469 1.79985 21.0365 1.79985 20.4V5.99995C1.79985 5.36343 2.05271 4.75298 2.50279 4.30289C2.95288 3.85281 3.56333 3.59995 4.19985 3.59995H18.5998C19.2364 3.59995 19.8468 3.85281 20.2969 4.30289C20.747 4.75298 20.9998 5.36343 20.9998 5.99995V13.2M16.1998 1.19995V5.99995M6.59985 1.19995V5.99995M1.79985 10.8H20.9998M14.9998 20.4L17.3998 22.7999L22.1998 18" stroke="#8D99AE" stroke-width="1.8" stroke-linecap="round" stroke-linejoin="round"/>
<path d="M7.96059 14.8394C7.67929 14.5581 7.29776 14.4 6.89993 14.4C6.50211 14.4 6.12058 14.5581 5.83927 14.8394C5.55797 15.1207 5.39993 15.5022 5.39993 15.9C5.39993 16.2978 5.55797 16.6794 5.83927 16.9607C6.12058 17.242 6.50211 17.4 6.89993 17.4C7.29776 17.4 7.67929 17.242 7.96059 16.9607C8.2419 16.6794 8.39993 16.2978 8.39993 15.9C8.39993 15.5022 8.2419 15.1207 7.96059 14.8394Z" fill="#8D99AE"/>
<path d="M13.0606 14.8394C12.7793 14.5581 12.3978 14.4 11.9999 14.4C11.6021 14.4 11.2206 14.5581 10.9393 14.8394C10.658 15.1207 10.4999 15.5022 10.4999 15.9C10.4999 16.2978 10.658 16.6794 10.9393 16.9607C11.2206 17.242 11.6021 17.4 11.9999 17.4C12.3978 17.4 12.7793 17.242 13.0606 16.9607C13.3419 16.6794 13.4999 16.2978 13.4999 15.9C13.4999 15.5022 13.3419 15.1207 13.0606 14.8394Z" fill="#8D99AE"/>
<path d="M18.1606 14.8394C17.8793 14.5581 17.4978 14.4 17.0999 14.4C16.7021 14.4 16.3206 14.5581 16.0393 14.8394C15.758 15.1207 15.5999 15.5022 15.5999 15.9C15.5999 16.2978 15.758 16.6794 16.0393 16.9607C16.3206 17.242 16.7021 17.4 17.0999 17.4C17.4978 17.4 17.8793 17.242 18.1606 16.9607C18.4419 16.6794 18.5999 16.2978 18.5999 15.9C18.5999 15.5022 18.4419 15.1207 18.1606 14.8394Z" fill="#8D99AE"/>
</g>
<defs>
<clipPath id="clip0_596_213">
<rect width="22.8" height="24" fill="white" transform="translate(0.600006)"/>
</clipPath>
</defs>
</svg>
