<svg width="28" height="28" viewBox="0 0 28 28" fill="none" xmlns="http://www.w3.org/2000/svg">
<g clip-path="url(#clip0_1127_11566)">
<path d="M14.0006 19.2891C16.9141 19.2891 19.2903 16.9128 19.2903 13.9994C19.2903 11.0859 16.9141 8.7097 14.0006 8.7097C11.0872 8.7097 8.71094 11.0859 8.71094 13.9994C8.71094 16.9128 11.0872 19.2891 14.0006 19.2891Z" stroke="white" stroke-width="1.40625" stroke-miterlimit="22.926" stroke-linecap="round" stroke-linejoin="round"/>
<path d="M15.4738 5.13775C16.3581 5.29356 17.2173 5.57992 18.0227 5.98975M9.97949 5.88395C10.7945 5.49592 11.6603 5.23225 12.5481 5.09959" stroke="white" stroke-width="1.40625" stroke-miterlimit="22.926" stroke-linecap="round" stroke-linejoin="round"/>
<path d="M14.0209 6.00391C14.9301 6.00391 15.6716 5.26239 15.6716 4.35316C15.6716 3.44397 14.9301 2.70241 14.0209 2.70241C13.1117 2.70241 12.3701 3.44397 12.3701 4.35316C12.3701 5.26239 13.1117 6.00391 14.0209 6.00391Z" stroke="white" stroke-width="1.40625" stroke-miterlimit="22.926" stroke-linecap="round" stroke-linejoin="round"/>
<path d="M22.8627 15.4721C22.7069 16.3564 22.4206 17.2156 22.0107 18.021M22.1165 9.97781C22.5046 10.7928 22.7682 11.6586 22.9009 12.5464" stroke="white" stroke-width="1.40625" stroke-miterlimit="22.926" stroke-linecap="round" stroke-linejoin="round"/>
<path d="M25.2976 14.0192C25.2976 14.9308 24.5585 15.6699 23.6468 15.6699C22.7352 15.6699 21.9961 14.9308 21.9961 14.0192C21.9961 13.1075 22.7352 12.3684 23.6468 12.3684C24.5585 12.3684 25.2976 13.1075 25.2976 14.0192Z" stroke="white" stroke-width="1.40625" stroke-miterlimit="22.926" stroke-linecap="round" stroke-linejoin="round"/>
<path d="M12.5284 22.8613C11.6441 22.7054 10.7849 22.4191 9.97949 22.0093M18.0227 22.1151C17.2077 22.5031 16.3419 22.7668 15.4541 22.8994" stroke="white" stroke-width="1.40625" stroke-miterlimit="22.926" stroke-linecap="round" stroke-linejoin="round"/>
<path d="M13.9808 25.2964C13.0692 25.2964 12.3301 24.5573 12.3301 23.6456C12.3301 22.734 13.0692 21.9949 13.9808 21.9949C14.8925 21.9949 15.6316 22.734 15.6316 23.6456C15.6316 24.5573 14.8925 25.2964 13.9808 25.2964Z" stroke="white" stroke-width="1.40625" stroke-miterlimit="22.926" stroke-linecap="round" stroke-linejoin="round"/>
<path d="M5.13972 12.5267C5.29553 11.6425 5.58189 10.7832 5.99172 9.97781M5.88592 18.021C5.49789 17.206 5.23422 16.3402 5.10156 15.4524" stroke="white" stroke-width="1.40625" stroke-miterlimit="22.926" stroke-linecap="round" stroke-linejoin="round"/>
<path d="M2.7041 13.9796C2.7041 13.0679 3.44318 12.3288 4.35485 12.3288C5.26652 12.3288 6.0056 13.0679 6.0056 13.9796C6.0056 14.8913 5.26652 15.6304 4.35485 15.6304C3.44318 15.6304 2.7041 14.8913 2.7041 13.9796Z" stroke="white" stroke-width="1.40625" stroke-miterlimit="22.926" stroke-linecap="round" stroke-linejoin="round"/>
</g>
<defs>
<clipPath id="clip0_1127_11566">
<rect width="24" height="24" fill="white" transform="translate(2 2)"/>
</clipPath>
</defs>
</svg>
